<svg version="1.0" xmlns="http://www.w3.org/2000/svg"
 width="1365.000000pt" height="147.000000pt" viewBox="0 0 1365.000000 147.000000"
 preserveAspectRatio="xMidYMid meet">
<g transform="translate(0.000000,147.000000) scale(0.100000,-0.100000)"
fill="#000000" stroke="none">
<path d="M595 1461 c-281 -45 -474 -207 -555 -466 -27 -86 -38 -309 -22 -430
39 -286 190 -470 443 -542 51 -14 99 -18 239 -17 177 1 280 15 428 59 l52 16
0 369 0 370 -285 0 -285 0 0 -125 0 -125 135 0 135 0 0 -149 c0 -173 13 -157
-136 -167 -228 -16 -363 84 -409 303 -17 81 -19 226 -4 309 23 124 111 254
207 303 59 30 147 51 215 51 71 0 196 -25 259 -52 26 -11 52 -18 59 -16 11 4
98 200 99 224 0 12 -94 46 -190 69 -75 18 -311 28 -385 16z"/>
<path d="M7720 1454 c-210 -45 -330 -186 -330 -388 0 -90 18 -152 64 -222 51
-76 128 -133 301 -220 219 -112 245 -136 245 -233 0 -153 -201 -184 -495 -76
-55 20 -108 39 -117 42 -17 5 -18 -6 -18 -134 l0 -139 33 -13 c221 -89 498
-94 673 -12 85 40 147 100 187 180 30 62 32 72 32 176 0 100 -3 116 -29 173
-48 104 -143 177 -389 298 -161 80 -206 133 -187 220 29 128 197 148 449 53
30 -11 57 -16 61 -12 4 4 26 55 49 112 50 122 53 115 -68 156 -164 54 -327 68
-461 39z"/>
<path d="M11680 1455 c-142 -32 -221 -74 -315 -169 -78 -79 -140 -190 -170
-306 -22 -86 -31 -324 -16 -429 40 -275 178 -450 411 -523 65 -20 95 -23 230
-23 129 1 170 5 245 24 146 38 135 24 135 169 0 124 0 124 -22 118 -300 -85
-435 -86 -545 -7 -101 73 -143 179 -150 381 -10 262 57 425 205 497 51 25 67
28 152 27 85 0 105 -4 190 -38 52 -20 102 -40 111 -42 13 -5 26 19 63 110 25
64 46 119 46 122 0 10 -109 54 -187 75 -103 27 -293 34 -383 14z"/>
<path d="M1520 735 l0 -715 410 0 410 0 0 125 0 125 -260 0 -260 0 0 185 0
185 245 0 245 0 0 125 0 125 -245 0 -245 0 0 155 0 155 260 0 260 0 0 125 0
125 -410 0 -410 0 0 -715z"/>
<path d="M2500 1325 l0 -125 195 0 195 0 0 -590 0 -590 150 0 150 0 0 590 0
590 195 0 195 0 0 125 0 125 -540 0 -540 0 0 -125z"/>
<path d="M4312 923 c3 -518 4 -529 26 -587 33 -89 65 -138 127 -194 61 -56
149 -102 235 -123 72 -18 307 -18 380 0 151 37 288 137 343 251 56 116 57 131
57 677 l0 503 -150 0 -150 0 0 -468 c0 -513 -4 -555 -54 -631 -48 -72 -106
-96 -231 -96 -85 0 -107 4 -148 24 -53 26 -88 66 -114 132 -16 39 -18 96 -21
542 l-3 497 -150 0 -150 0 3 -527z"/>
<path d="M5830 735 l0 -715 136 0 136 0 -5 508 c-4 279 -9 523 -13 542 -5 31
-4 33 8 20 8 -8 133 -222 277 -475 145 -253 281 -490 303 -527 l40 -68 194 0
194 0 0 715 0 715 -140 0 -140 0 0 -357 c0 -197 5 -437 10 -533 5 -96 8 -176
6 -178 -2 -1 -106 174 -231 390 -126 216 -244 420 -264 454 -20 33 -56 97 -81
142 l-45 82 -192 0 -193 0 0 -715z"/>
<path d="M8420 1325 l0 -125 195 0 195 0 0 -590 0 -590 150 0 150 0 0 590 0
590 195 0 195 0 0 125 0 125 -540 0 -540 0 0 -125z"/>
<path d="M9712 923 c3 -518 4 -529 26 -587 44 -118 112 -200 212 -258 92 -53
181 -73 335 -73 159 0 215 11 325 63 132 62 229 185 259 330 7 35 11 226 11
552 l0 500 -150 0 -150 0 0 -470 c0 -482 -4 -538 -41 -611 -41 -83 -111 -114
-249 -114 -110 0 -172 23 -215 79 -59 78 -59 77 -63 619 l-3 497 -150 0 -150
0 3 -527z"/>
<path d="M12500 735 l0 -715 150 0 150 0 0 254 0 255 62 45 c35 24 66 42 69
40 4 -2 62 -93 129 -201 68 -109 150 -242 183 -296 l61 -97 173 0 173 0 -69
108 c-37 59 -123 195 -191 302 -67 107 -149 237 -182 289 -33 51 -57 98 -55
105 3 6 34 47 69 91 103 129 361 457 392 498 l28 37 -168 -1 -169 0 -203 -257
c-112 -141 -224 -288 -250 -325 l-47 -69 -3 326 -2 326 -150 0 -150 0 0 -715z"/>
</g>
</svg>
